<svg width="504" height="30" viewBox="0 0 504 30" fill="none" xmlns="http://www.w3.org/2000/svg"><g clip-path="url(#clip0_412_1405)"><path d="M443.334 26.8328C439.169 28.9156 434.575 30 429.918 30L81.9995 30C73.7155 30 66.9995 23.2843 66.9995 15C66.9995 6.7157 73.7155 0 81.9995 0L463.459 0C471.814 0 474.473 11.2634 467 15L443.334 26.8328Z" fill="white"/><path d="M504 0.000299454C499.371 0.0128995 494.807 1.0967 490.665 3.1674L467 15L467 0.000200272L504 0.000299454Z" fill="white"/><path d="M470 5L462 5V0L470 0V5Z" fill="white"/><path d="M60.6654 26.8328C64.8314 28.9156 69.4244 30 74.0824 30L422 30C430.284 30 437 23.2843 437 15C437 6.7157 430.284 0 422 0L40.5414 0C32.1854 0 29.5264 11.2634 37.0004 15L60.6654 26.8328Z" fill="white"/><path d="M0 0.000299454C4.629 0.0128995 9.19299 1.0967 13.335 3.1674L37 15V0.000200272L0 0.000299454Z" fill="white"/><path d="M34 5L42 5V0L34 0V5Z" fill="white"/></g><defs><clipPath id="clip0_412_1405"><rect width="504" height="30" fill="white" transform="matrix(-1 0 0 -1 504 30)"/></clipPath></defs></svg>